<?xml version="1.0" encoding="UTF-8"?>
<svg width="27px" height="32px" viewBox="0 0 27 32" version="1.1" xmlns="http://www.w3.org/2000/svg" xmlns:xlink="http://www.w3.org/1999/xlink">
    <!-- Generator: Sketch 42 (36781) - http://www.bohemiancoding.com/sketch -->
    <title>ranger-station-white-32</title>
    <desc>Created with Sketch.</desc>
    <defs></defs>
    <g id="Page-1" stroke="none" stroke-width="1" fill="none" fill-rule="evenodd">
        <g id="ranger-station-white-32" fill-rule="nonzero">
            <g id="Group" opacity="0.5" transform="translate(2.000000, 2.000000)" fill="#000000">
                <polygon id="Shape" points="24 18 15.7 12 16 12 16 6 19 6 19 7 23 7 23 1 19 1 19 0 16 0 16 0 15 0 15 11.5 13 10 12 10 1 18 0 18 0 19 2 19 2 30 9 30 9 22 10 21 14 21 15 22 15 30 23 30 23 19 25 19 25 18"></polygon>
            </g>
            <g id="Group" opacity="0.75" transform="translate(1.000000, 1.000000)" fill="#000000">
                <polygon id="Shape" points="24 18 15.7 12 16 12 16 6 19 6 19 7 23 7 23 1 19 1 19 0 16 0 16 0 15 0 15 11.5 13 10 12 10 1 18 0 18 0 19 2 19 2 30 9 30 9 22 10 21 14 21 15 22 15 30 23 30 23 19 25 19 25 18"></polygon>
            </g>
            <polygon id="Shape" fill="#FFFFFF" points="24 18 15.7 12 16 12 16 6 19 6 19 7 23 7 23 1 19 1 19 0 16 0 16 0 15 0 15 11.5 13 10 12 10 1 18 0 18 0 19 2 19 2 30 9 30 9 22 10 21 14 21 15 22 15 30 23 30 23 19 25 19 25 18"></polygon>
        </g>
    </g>
</svg>